<svg version="1.2" xmlns="http://www.w3.org/2000/svg" viewBox="0 0 23 24" width="23" height="24">
	<style>
		.s0 { fill: #ffffff } 
	</style>
	<g id="Layer 1">
		<path class="s0" d="m7.92 22q-0.79 0-1.36-0.59-0.56-0.59-0.56-1.41v-9.55q0-0.65 0.36-1.16 0.36-0.52 0.93-0.74l0.91-0.35q0.34-0.13 0.51-0.36 0.17-0.24 0.17-0.59v-4.25q0-0.42 0.27-0.71 0.28-0.29 0.68-0.29h2.88q0.41 0 0.68 0.29 0.28 0.29 0.28 0.71v4.25q0 0.35 0.16 0.59 0.17 0.23 0.51 0.36l0.91 0.35q0.57 0.22 0.93 0.74 0.36 0.51 0.36 1.16v9.55q0 0.82-0.56 1.41-0.56 0.59-1.35 0.59zm2.87-17h0.96v-1h-0.96zm-2.88 7h6.71v-1.55l-0.91-0.35q-0.91-0.35-1.43-1.1-0.53-0.75-0.53-1.7v-0.3h-0.96v0.3q0 0.95-0.53 1.7-0.52 0.75-1.43 1.1l-0.92 0.35zm0 8h6.71v-2h-6.71zm0-4h6.71v-2h-6.71z"/>
	</g>
</svg>